<svg width="63" height="58" viewBox="0 0 63 58" fill="none" xmlns="http://www.w3.org/2000/svg">
<path d="M29.3836 3.21728C27.3312 3.394 25.6381 3.72931 23.9991 4.28665C23.2411 4.5404 22.0107 5.09322 21.2921 5.4965C19.6777 6.41181 18.0879 7.77119 16.9805 9.19853C15.3071 11.3509 14.239 14.0017 13.7321 17.2777C13.673 17.6448 13.6385 17.962 13.6533 17.9846C13.6681 18.0073 13.8846 18.1387 14.1258 18.2792L14.5737 18.5329L17.8812 18.8954C19.7023 19.0948 21.2527 19.2624 21.3364 19.2715L21.4791 19.2806L21.6169 18.6009C22.4339 14.5001 24.1664 11.9898 27.1048 10.6304C28.4189 10.0277 29.8266 9.74228 31.5345 9.74228C33.9216 9.74228 35.9593 10.3812 37.7016 11.6771C38.5432 12.307 39.4587 13.2676 40.01 14.1104C41.1814 15.8912 41.4964 18.2202 40.8221 20.1188C40.6301 20.6626 40.1478 21.5099 39.7639 21.9767C38.9468 22.9781 37.7016 24.1471 35.7328 25.7603C32.8043 28.1663 31.4754 29.4442 30.4369 30.8579C28.4288 33.5857 27.6216 36.5763 27.7446 40.8403L27.7742 41.9595L31.1752 41.9504L34.5762 41.9368L34.586 41.461C34.6156 40.0926 34.7682 38.2484 34.9257 37.4056C35.2062 35.8831 35.8559 34.5237 36.86 33.3728C37.3226 32.8381 39.0797 31.2567 40.6301 29.9743C45.1287 26.2496 47.0876 24.0293 48.1507 21.4465C49.2483 18.7912 49.3074 15.6238 48.3082 12.8326C47.57 10.7799 46.1771 8.84056 44.292 7.25462C41.6145 4.99806 38.435 3.7429 34.2317 3.28525C33.4343 3.19462 30.1564 3.15384 29.3836 3.21728Z" fill="white"/>
<path d="M27.469 46.2641C27.3705 46.7081 27.3656 46.8123 27.3656 50.4328V54.1484H31.3523H35.339V50.3966C35.3341 47.0434 35.3243 46.6084 35.2504 46.2414L35.1668 45.8336L31.372 45.82L27.5772 45.8109L27.469 46.2641Z" fill="white"/>
</svg>
